<?xml version="1.0" ?><svg id="Layer_3" style="enable-background:new 0 0 64 64;" version="1.1" viewBox="0 0 64 64" xml:space="preserve" xmlns="http://www.w3.org/2000/svg" xmlns:xlink="http://www.w3.org/1999/xlink"><g><path d="M62,1H2C1.448,1,1,1.447,1,2v6v22v20v6v6c0,0.553,0.448,1,1,1h24h17h10h9c0.552,0,1-0.447,1-1V30V10V2   C63,1.447,62.552,1,62,1z M33,34v27h-2V34c0-0.553-0.448-1-1-1H3v-2h5h6h18h8h6h10h5v2H34C33.448,33,33,33.447,33,34z M3,9h4v20H3   V9z M19,21c0-1.103,0.897-2,2-2h2v4h-2C19.897,23,19,22.103,19,21z M32,23h-7v-4h10v4H32z M21,25h10v4H15v-4H21z M13,11H9V8V7h4V11   z M9,13h4v11v5H9V13z M3,51h3h17c1.103,0,2,0.897,2,2s-0.897,2-2,2H3V51z M23,49H13v-4h10V49z M11,49H7v-4h4V49z M26.398,55.084   C26.773,54.475,27,53.766,27,53c0-1.474-0.81-2.75-2-3.444V44c0-0.553-0.448-1-1-1H6c-0.552,0-1,0.447-1,1v5H3V35h26v26h-2v-5   C27,55.589,26.752,55.238,26.398,55.084z M55,10v13h-8V12V7h8V10z M47,25h8v4h-8V25z M45,29h-4V13h4V29z M57,29V11h4v18H57z M61,3   v6h-4V6c0-0.553-0.448-1-1-1H46c-0.552,0-1,0.447-1,1v5h-5c-0.552,0-1,0.447-1,1v17h-6v-4h3c0.552,0,1-0.447,1-1v-6   c0-0.553-0.448-1-1-1H21c-2.206,0-4,1.794-4,4c0,0.732,0.212,1.409,0.556,2H15V6c0-0.553-0.448-1-1-1H8C7.448,5,7,5.447,7,6v1H3V3   H61z M3,61v-4h20h2v4H3z M43.414,61l-0.939-0.939C41.524,59.109,41,57.845,41,56.5s0.524-2.609,1.475-3.561l2.232-2.232   c0.128-0.128,0.219-0.289,0.263-0.465L45.781,47h4.438l0.811,3.242c0.044,0.176,0.135,0.337,0.263,0.465l2.232,2.232   C54.476,53.891,55,55.155,55,56.5s-0.524,2.609-1.475,3.561L52.586,61H43.414z M55.37,61c1.054-1.262,1.63-2.836,1.63-4.5   c0-1.879-0.732-3.646-2.061-4.975l-2.037-2.037l-0.933-3.73C51.859,45.312,51.459,45,51,45h-6c-0.459,0-0.859,0.312-0.97,0.758   l-0.933,3.73l-2.037,2.037C39.732,52.854,39,54.621,39,56.5c0,1.664,0.576,3.238,1.63,4.5H35V35h26v26H55.37z"/><rect height="2" width="2" x="41" y="37"/><rect height="2" width="2" x="43" y="39"/><rect height="2" width="2" x="41" y="41"/><rect height="2" width="2" x="39" y="39"/><rect height="2" width="2" x="53" y="37"/><rect height="2" width="2" x="55" y="39"/><rect height="2" width="2" x="53" y="41"/><rect height="2" width="2" x="51" y="39"/></g></svg>